# xmcd
#
# Track frame offsets:
#  150
#  16074
#  29253
#  42587
#  56109
#  67303
#  78094
#  97013
#  114769
#  130456
#  146317
#
# Disc length: 2144 seconds
#
# Revision: 0
# Processed by: cddbd v1.5.1PL0 Copyright (c) Steve Scherf et al.
# Submitted via: Collectorz.com_Music_Collector 6.9
#
DISCID=93085e0b
DTITLE=Hall, Tom T. - The Storyteller
DYEAR=1900
DGENRE=Country
TTITLE0=More About John Henry
TTITLE1=When Nobody Wants Your Body Anmore
TTITLE2=Windy City Anne
TTITLE3=The Story Of Your Life Is In Your Face
TTITLE4=Willy The Wandering Gypsy And Me
TTITLE5=St. Louis Named A Shoe After Me
TTITLE6=Old Dogs, Children And Watermelon Wine
TTITLE7=The Rolling Mills Of Middletown
TTITLE8=Grandma Whistled 
TTITLE9=A Piece Of The Road
TTITLE10=One More Song For Jesus
EXTD=
EXTT0=
EXTT1=
EXTT2=
EXTT3=
EXTT4=
EXTT5=
EXTT6=
EXTT7=
EXTT8=
EXTT9=
EXTT10=
PLAYORDER=
